<?xml version="1.0" encoding="UTF-8"?><svg id="_レイヤー_2" xmlns="http://www.w3.org/2000/svg" viewBox="0 0 300 135"><defs><style>.cls-1{stroke-width:0px;}</style></defs><path class="cls-1" d="M43.53,13.71c-.59-.23-.69-1.02-.18-1.4.91-.68,2.23-1.43,2.29-2.82.04-.77-1.25-1.25-1.54-1.35l-6.44-2.68c-.91-.38-1.91.19-2.13,1.15-.24,1.07-1.04,2.43-1.35,2.96-7,11.66-16.63,20.3-24.66,26.54-.56.44,0,1.3.63.98,5.02-2.52,9.14-5.03,12.8-7.6.77-.54,1.83-.32,2.33.46l.25.38c.35.54.97.85,1.61.8l2.39-.19c1.59-.13,3.19-.19,4.79-.19h15.08c.48,0,2.03,0,2.03-1.35,0-.58-.39-1.06-.87-1.54l-2.76-2.55c-.44-.41-.93-.76-1.47-1.01-.29-.14-.61-.24-.88-.24-.77,0-1.35.48-1.74.96l-.86,1.25c-.79,1.14-2.1,1.81-3.49,1.77l-12.06-.33c-.62-.02-.87-.79-.38-1.18,4.33-3.42,8.11-7.01,12.2-10.96.74-.71,1.87-.86,2.75-.33,4.22,2.54,10.1,8.04,13.06,12.9,1.64,2.69,3.23,4.73,5.35,4.73,1.54,0,2.89-1.35,2.89-3.47,0-7.23-12-12.72-19.64-15.68Z"/><path class="cls-1" d="M66.96,27.29v35.62c0,2.32.39,2.99,1.93,2.99.87,0,2.7-.29,4.15-1.06,1.16-.68,1.16-1.74,1.16-3.09V28.78c0-2.04.82-4.04,2.42-5.3.4-.31.47-.53.47-.87,0-.39-.13-.64-.64-.8-1.37-.42-2.76-.79-4.1-1.29l-4.18-1.57c-.89-.33-1.82.41-1.69,1.35.32,2.31.48,4.65.48,6.99Z"/><path class="cls-1" d="M55.08,68.06c-.46-.46-1.1-.76-1.75-.71s-1.12.43-1.57,1.05l-.35.49c-.92,1.26-2.39,2.01-3.95,2.01-4.09,0-12.09.01-15.06.01-.75,0-1.49-.2-2.13-.58-1.31-.78-3.45-2.05-3.45-2.05-.69-.41-1.05-1.21-.88-2,.29-1.3.4-2.43.73-3.47.28-.87,1.07-1.47,1.98-1.47,5.15,0,18.64,0,18.64,0,1.12,0,2.03.91,2.03,2.03,0,1.64,1.06,1.37,1.93,1.37.29,0,2.45-.1,3.99-.77,1.06-.48,1.16-1.16,1.16-2.6v-16.76c0-1.28.5-2.51,1.4-3.42.71-.72,1.11-1.22,1.11-1.6,0-.87-1.25-2.03-1.25-2.03l-2.22-2.22c-.29-.29-1.16-.96-1.83-.96-.96,0-1.64.77-1.93,1.06l-.27.35c-.92,1.17-2.32,1.86-3.81,1.86-4.84,0-15.74,0-19.5,0-.86,0-1.7-.2-2.47-.58l-4.52-2.25c-.42-.19-.91-.09-1.22.25-.24.27-.34.63-.25.98.39,1.49.97,6.34.93,15.41-.12,26.92-9.72,34.98-15.33,40.38-.28.27-.31.69-.04.97.22.22.58.26.84.08,9.26-6.08,15.1-12.68,18.24-20.97.07-.18.32-.13.32.06v19.41c0,1.64.19,2.03,1.64,2.03,4.73,0,5.3-1.83,5.3-3.47v-.18c0-1.12.9-2.02,2.02-2.02h13.78c1.12,0,2.02.9,2.02,2.02v.37c0,1.35,0,2.12,1.54,2.12,4.82,0,5.4-2.22,5.4-3.86,0,0,0-6.57,0-10.17,0-1.43.63-2.78,1.71-3.71.94-.81,1.09-1.1,1.09-1.57,0-.77-.68-1.54-1.25-2.12l-2.76-2.76ZM27.34,42.46c0-1.12.91-2.03,2.03-2.03h17.92c1.12,0,2.03.91,2.03,2.03v3.48c0,1.12-.91,2.03-2.03,2.03h-17.92c-1.12,0-2.03-.91-2.03-2.03v-3.48ZM27.34,52.77c0-1.12.91-2.03,2.03-2.03h17.92c1.12,0,2.03.91,2.03,2.03v3.77c0,1.12-.91,2.03-2.03,2.03h-17.92c-1.12,0-2.02-.91-2.02-2.02v-3.78ZM49.34,82.94c0,1.12-.9,2.02-2.02,2.02h-13.78c-1.12,0-2.02-.9-2.02-2.02v-7.23c0-1.12.9-2.02,2.02-2.02h13.78c1.12,0,2.02.9,2.02,2.02v7.23Z"/><path class="cls-1" d="M93.88,10.36c-.99-.3-1.99-.58-2.94-.98l-5.36-2.26c-.8-.34-1.67.32-1.56,1.19h0c.37,2.77.55,5.57.55,8.36v62.6c0,2.7.51,4.96-5.09,4.96-4.17,0-6.16-.45-11.65-1.49-.41-.08-.75.32-.75.74,0,.35.25.65.59.74,15.73,4.2,12.27,9.78,16.64,9.78,3.48,0,7.6-3.85,7.6-12.21V16.94c0-1.86.73-3.7,2.15-4.89.33-.28.55-.57.55-.88,0-.39-.21-.64-.73-.8Z"/><path class="cls-1" d="M143.55,93.87c.09.14.26.2.41.13,14.08-6.34,20.22-21.18,21.46-25.01,1.93-5.98,2.28-12.35,2.28-18.72v-2.12c0-1.09.88-1.98,1.97-1.98h7.06c1.09,0,1.98.89,1.98,1.98v42.3c.01,1.83.01,2.61,1.75,2.61,5.5,0,5.89-1.35,5.89-4.24v-40.66c-.01-1.09.87-1.98,1.97-1.98h10.47c.97,0,1.93-.11,1.74-1.25-.15-.84-1.62-1.86-3.76-4.42-.69-.82-1.71-1.55-2.99-1.55-2.34,0-2.56,4.45-4.86,4.45h-.58c-1.09,0-1.98-.89-1.98-1.98v-24.14c-.01-1.09.88-1.98,1.97-1.98h8.44c.77,0,1.6,0,1.64-1.06.04-.98-2.93-2.99-4.65-5.21-.9-1.15-1.9-1.63-2.96-1.63-.58,0-1.64.29-2.51,1.83l-.21.35c-1.07,1.83-3.02,2.95-5.14,2.95h-19.65c-2.06,0-4.11-.06-6.16-.17l-6.37-.36c-.72-.04-1.14.8-.68,1.35l1.41,1.71c.26.31.65.49,1.05.47l5.69-.23c1.09,0,1.98.89,1.98,1.98v24.14c.01,1.09-.88,1.98-1.97,1.98h-1.46c-2.33,0-4.66-.07-6.99-.22l-.8-.05c-.56-.03-.88.62-.53,1.06l1.84,2.24c.28.35.73.51,1.17.44l1.57-.26c1.71-.29,3.45-.43,5.19-.43h0c1.09,0,1.98.88,1.98,1.97v2.22c0,12.58-.86,29.23-16.58,43.09-.12.1-.15.28-.07.41h0ZM176.7,43.39h-7.02c-1.09,0-1.98-.89-1.98-1.98v-24.03c-.01-1.09.88-1.98,1.97-1.98h7.02c1.09,0,1.98.89,1.98,1.98v24.03c.01,1.09-.88,1.98-1.97,1.98Z"/><path class="cls-1" d="M144.03,9.9c-1.05-1.52-1.81-1.77-2.67-1.77s-1.64.39-2.41,1.83h0c-.95,1.84-2.84,2.99-4.91,2.99h-13.86c-3.19,0-6.39-.1-9.58-.31h0c-.6-.04-.95.66-.56,1.12l1.68,1.98c.26.3.65.45,1.04.4h0c1.99-.28,3.99-.42,5.99-.42h3.14c1.06,0,1.91.9,1.82,1.96-1.16,13.16-8.11,33.61-21.52,47.05-.35.35-.27.92.16,1.16h0c.25.14.57.12.81-.05,6.56-4.78,11.46-9.81,15.22-14.86.25-.34.79-.17.79.26v34.81c0,1.93,0,2.8,2.41,2.8,1.93,0,4.81-1.06,4.81-3.09v-8.25c-.01-1.11.89-2.02,2-2.02h5.83c1.11,0,2.01.9,2.01,2.01v2.46c0,1.16-.09,2.03,2.03,2.03,5.11,0,5.46-1.93,5.46-3.28v-33.8c0-1.46.65-2.82,1.69-3.84.31-.3.4-.52.4-.86.01-.83-1.77-2.16-3.65-4.24-.69-.76-1.62-1.81-2.69-1.81-.58,0-1.25.19-2.03,1.35l-.4.58c-.96,1.39-2.54,2.22-4.22,2.22h-4.88c-.43,0-.83-.18-1.12-.5h0c-.39-.44-.5-1.07-.27-1.62,2.73-6.7,4.18-12.88,5.62-17.89.44-1.54,1.85-2.6,3.46-2.6h10.43c.87,0,1.45-.29,1.45-1.25,0-.58-2.5-3.13-3.49-4.56ZM128.39,41.1h5.82c1.11,0,2.01.9,2.01,2.01v27.62c.01,1.11-.89,2.01-2,2.01h-5.82c-1.11,0-2.01-.9-2.01-2.01v-27.62c-.01-1.11.89-2.01,2-2.01Z"/><path class="cls-1" d="M278.69,26.66c1.45,0,2.83-.63,3.79-1.72.69-.79,1.39-1.6,1.64-1.85.48-.68.77-.77,1.25-.77.96,0,1.16.1,7.43,5.79.58.58,1.16,1.06,1.16,1.83s-.29,1.18-1.1,1.49c-3.27,1.26-6.42,2.8-9.25,4.88-2,1.47-3.71,2.63-5.3,4.04-.29.26-.73.27-1.02,0h0c-.27-.25-.33-.65-.14-.97,2.18-3.63,2.44-5.31,3.86-8.07.45-.86-.18-1.9-1.15-1.9h-56.21c-.93,0-1.72.68-1.87,1.59-1.79,10.64-6.89,12.48-9.29,12.48-1.74,0-3.38-.96-3.38-3.18,0-1.83,2.38-4.49,5.37-7.38,4.53-4.17,4.7-9.67,4.87-13.52.02-.4.36-.71.76-.68h0c.3.02.56.22.64.5.54,1.78.97,3.53,1.12,5.64.07,1.02.93,1.8,1.95,1.8h21.84c1.09,0,1.97-.88,1.97-1.97v-7.95c0-3.05-.19-6.11-.56-9.14h0c-.16-1.29,1.12-2.28,2.33-1.81l5.08,1.97c1.07.42,2.18.71,3.28,1.06.58.18.77.49.77.9s-.19.68-.96,1.16l-.04.02c-1.39.65-2.28,2.04-2.28,3.58v10.22c0,1.09.88,1.97,1.97,1.97h21.45Z"/><path class="cls-1" d="M221.91,7.89c.14-.3.47-.45.79-.37,2.29.6,6.21,2.08,7.1,2.44,4.73,1.74,10.12,6.18,10.12,10.52,0,2.51-1.45,3.76-2.89,3.76-2.41,0-3.18-1.64-5.02-5.88-1.21-2.6-4.46-6.84-9.79-9.56-.34-.17-.48-.57-.31-.91h0Z"/><path class="cls-1" d="M286.9,79.77c-.48,0-1.06.19-1.64.77-.21.28-1.17,1.36-2.38,3.1-1,1.44-2.65,2.3-4.4,2.3h-21.45c-1.08,0-1.95-.87-1.95-1.95v-8.55c0-1.08.87-1.95,1.95-1.95h22.94c.48,0,2.22-.1,2.22-1.16,0-.58-.46-.99-.96-1.45-4.41-3.94-5.02-5.59-6.66-5.59-.29,0-.77.1-1.45.77-.64.64-1.15,1.32-1.96,2.47-.95,1.35-2.5,2.16-4.16,2.16h-9.97c-1.08,0-1.95-.87-1.95-1.95v-3.17c0-1.86.87-3.58,2.26-4.83.42-.38.54-.72.54-.91,0-.23-.12-.81-1.15-1.1s-2-.56-2.95-.97l-2.16-.93c-.7-.3-.48-1.34.28-1.34h10.81c1.09,0,1.98.89,1.98,1.98v1.4c0,1.54.96,1.54,2.03,1.54,4.82,0,5.45-1.45,5.45-3.67v-12.55c0-1.07.45-2.08,1.23-2.81s1.57-1.54,1.57-2.01c0-.58-.19-.68-1.06-1.64-2.7-2.7-4.05-4.15-5.11-4.15-.48,0-.96.39-1.35.77-.21.17-.7.72-1.23,1.31-.97,1.08-2.36,1.7-3.81,1.7h-19.94c-2.68,0-5.34-.59-7.77-1.72l-3.88-1.81c-.65-.31-1.39.25-1.27.96.37,2.17.55,4.36.55,6.56v20.11c0,1.25.19,1.83,1.93,1.83.48,0,2.32,0,3.86-.77,1.64-.87,1.74-1.83,1.74-2.99v-2.06c0-1.09.89-1.98,1.98-1.98h4.52c1.68,0,3.09,1.26,3.27,2.93.11,1.02.17,2.05.17,3.07v7.24c0,1.08-.87,1.95-1.95,1.95h-7.54c-5.37,0-10.74-.18-16.09-.55h0c-.71-.05-1.17.72-.81,1.32l.95,1.59c.34.56.96.89,1.62.83h0c3.34-.27,6.69-.41,10.04-.41h11.84c1.08,0,1.95.87,1.95,1.95v8.55c0,1.08-.87,1.95-1.95,1.95h-14.25c-6.89,0-13.78-.19-20.67-.57h0c-.71-.04-1.16.73-.8,1.33l1.03,1.68c.34.55.95.86,1.6.82h0c3.66-.28,7.34-.42,11.01-.42h68.68c1.93,0,2.8-.29,2.8-1.06,0-1.25-2.47-3-4.94-5.9-1.2-1.41-2.04-2.05-3.16-2.05ZM237.61,50.66v-8.52c0-1.09.89-1.98,1.98-1.98h23.11c1.09,0,1.98.89,1.98,1.98v8.52c0,1.09-.89,1.98-1.98,1.98h-23.11c-1.09,0-1.98-.89-1.98-1.98Z"/><path class="cls-1" d="M261.45,22.4c5.74-5.29,7.62-8.36,10.61-14.01.51-.97,1.74-1.31,2.68-.73l7.17,4.39c.39.29,1.06.77,1.06,1.45,0,.72-.55,1.03-1.47,1.15-2.2.28-4.33,1-6.19,2.2-4.14,2.67-9.04,4.81-12.98,6.83-.28.14-.62.1-.86-.11h0c-.35-.3-.35-.84,0-1.16Z"/><path class="cls-1" d="M23.92,129.66c-1.79,0-3.41-.94-4.08-1.52-.22.22-.63.9-.72,1.52h-.85v-6.19h.94c.31,2.96,2.38,4.71,5.02,4.71,1.43,0,2.6-.81,2.6-2.15,0-1.17-1.03-2.06-2.87-2.91l-2.51-1.21c-1.84-.85-3.14-2.33-3.14-4.3,0-2.15,2.02-3.99,4.75-3.99,1.48,0,2.73.54,3.54,1.17.18-.18.45-.67.54-1.21h.85v5.29h-.94c-.31-2.11-1.48-3.86-3.81-3.86-1.3,0-2.47.72-2.47,1.84s.94,1.79,3.09,2.78l2.51,1.21c2.15,1.03,2.96,2.69,2.96,4.04,0,2.82-2.47,4.8-5.42,4.8Z"/><path class="cls-1" d="M48.44,129.66c-4.93,0-8.97-3.63-8.97-8.07s4.03-8.02,8.97-8.02,8.97,3.63,8.97,8.02-4.04,8.07-8.97,8.07ZM48.44,114.96c-4.12,0-5.56,3.72-5.56,6.63s1.43,6.63,5.56,6.63,5.6-3.68,5.6-6.63-1.43-6.63-5.6-6.63Z"/><path class="cls-1" d="M75.84,115c-2.51,0-2.91.54-2.91,3.72v1.97l4.12-3.27c2.42-1.84,2.42-2.42.4-2.42v-.85h7.31v.85c-2.02,0-3.09.76-6.1,3.09l-2.69,2.11,5.51,4.89c3.14,2.73,3.95,3.14,5.38,3.14v.85h-8.83v-.85c1.93.04,2.24-.58.18-2.42l-4.3-3.99-.99.81v1.84c0,3.18.4,3.77,2.91,3.77v.85h-8.92v-.85c2.51,0,2.91-.58,2.91-3.77v-5.74c0-3.18-.4-3.72-2.91-3.72v-.85h8.92v.85Z"/><path class="cls-1" d="M109.11,118.36h-.72l-.22-.85c-.4-1.48-.9-2.02-4.08-2.02h-2.47v5.02c3.5,0,3.77-.31,3.77-2.64h.85v6.68h-.85c0-2.33-.27-2.64-3.77-2.64v2.06c0,3.18.4,3.72,2.73,3.72h.63c3.18,0,3.68-.54,4.08-2.02l.22-.81h.67l-.27,4.21h-14.08v-.85c2.51,0,2.91-.58,2.91-3.77v-5.74c0-3.18-.4-3.72-2.91-3.72v-.85h13.18l.31,4.21Z"/><path class="cls-1" d="M136.37,118.72v10.89h-.94l-10.45-11.12v5.96c0,3.18.4,3.77,2.91,3.77v.85h-7.22v-.85c2.51,0,2.91-.58,2.91-3.77v-5.74c0-3.18-.4-3.72-2.91-3.72v-.85h4.44l9.86,10.45v-5.87c0-3.18-.4-3.72-2.91-3.72v-.85h7.22v.85c-2.51,0-2.91.54-2.91,3.72Z"/><path class="cls-1" d="M149.1,128.23c2.51,0,2.91-.58,2.91-3.77v-5.74c0-3.18-.4-3.72-2.91-3.72v-.85h8.02c6.41,0,9.19,3.36,9.19,7.44s-2.78,7.49-9.19,7.49h-8.02v-.85ZM157.26,115.49h-2.15v9.73c0,2.06.22,2.47,1.84,2.47h.31c4.66,0,5.51-3.41,5.51-6.14s-.85-6.05-5.51-6.05Z"/><path class="cls-1" d="M184.75,129.66c-4.93,0-8.97-3.63-8.97-8.07s4.03-8.02,8.97-8.02,8.97,3.63,8.97,8.02-4.04,8.07-8.97,8.07ZM184.75,114.96c-4.12,0-5.56,3.72-5.56,6.63s1.43,6.63,5.56,6.63,5.6-3.68,5.6-6.63-1.43-6.63-5.6-6.63Z"/><path class="cls-1" d="M227.48,127.69h1.57c3.23,0,3.72-.54,4.08-2.02l.22-.81h.72l-.31,4.21h-15.02v-.85c2.51,0,2.91-.58,2.91-3.77v-5.74c0-3.18-.4-3.72-2.91-3.72v-.85h8.92v.85c-2.51,0-2.91.54-2.91,3.72v5.24c0,3.18.4,3.72,2.73,3.72Z"/><path class="cls-1" d="M251.42,127.69h1.57c3.23,0,3.72-.54,4.08-2.02l.22-.81h.72l-.31,4.21h-15.02v-.85c2.51,0,2.91-.58,2.91-3.77v-5.74c0-3.18-.4-3.72-2.91-3.72v-.85h8.92v.85c-2.51,0-2.91.54-2.91,3.72v5.24c0,3.18.4,3.72,2.73,3.72Z"/><path class="cls-1" d="M280.96,129.08c-.18-.63-.36-1.26-.54-1.57-1.17,1.21-3.09,2.15-4.84,2.15-4.71,0-8.52-3.63-8.52-8.07s3.81-8.02,8.52-8.02c1.75,0,3.68.85,4.8,2.11.22-.36.4-.99.58-1.52h.85v6.14h-.9c-.72-3.32-2.6-5.33-5.33-5.33-4.03,0-5.11,3.77-5.11,6.63s1.08,6.63,5.11,6.63c2.73,0,4.62-2.02,5.33-5.33h.9v6.19h-.85Z"/></svg>